<?xml version="1.0" standalone="no"?>
<!DOCTYPE svg PUBLIC "-//W3C//DTD SVG 20010904//EN"
 "http://www.w3.org/TR/2001/REC-SVG-20010904/DTD/svg10.dtd">
<svg version="1.0" xmlns="http://www.w3.org/2000/svg"
 width="700.000000pt" height="700.000000pt" viewBox="0 0 700.000000 700.000000"
 preserveAspectRatio="xMidYMid meet">
<metadata>
Created by potrace 1.14, written by Peter Selinger 2001-2017
</metadata>
<g transform="translate(0.000000,700.000000) scale(0.100000,-0.100000)"
fill="#000000" stroke="none">
<path d="M3278 6995 c-1 -1 -42 -5 -89 -9 -47 -4 -95 -8 -105 -10 -10 -2 -41
-7 -69 -10 -428 -56 -875 -210 -1270 -439 -103 -60 -265 -165 -315 -204 -8 -6
-51 -40 -95 -74 -353 -275 -673 -651 -897 -1054 -49 -87 -148 -289 -148 -301
0 -2 -9 -23 -20 -47 -57 -123 -157 -435 -186 -582 -2 -11 -10 -54 -19 -95 -29
-147 -36 -200 -52 -370 -15 -165 -8 -592 12 -711 2 -13 6 -46 9 -74 9 -78 22
-152 51 -285 21 -96 91 -339 114 -395 5 -11 25 -65 46 -120 63 -166 249 -531
312 -610 4 -6 34 -49 65 -95 170 -255 433 -535 708 -755 92 -74 370 -265 386
-265 4 0 15 -6 23 -14 26 -22 298 -158 411 -205 267 -111 589 -200 859 -237
25 -3 57 -8 71 -10 163 -25 682 -25 842 1 13 2 46 7 73 10 71 10 87 13 115 18
14 3 43 8 65 12 22 4 76 16 120 27 44 10 87 21 96 23 25 5 157 45 219 65 178
57 568 235 660 300 15 11 33 20 39 20 6 0 11 5 11 10 0 6 5 10 10 10 15 0 220
141 330 227 152 118 324 280 450 422 36 41 70 79 76 85 6 6 48 61 94 121 150
197 277 405 383 628 26 53 47 99 47 102 0 2 11 28 24 57 57 127 151 421 182
573 17 81 54 301 59 350 4 33 9 71 11 85 9 47 11 525 3 605 -15 165 -21 220
-24 225 -2 3 -6 30 -10 60 -4 30 -22 123 -40 205 -53 232 -102 385 -197 610
-387 911 -1160 1625 -2103 1943 -168 57 -420 119 -555 137 -19 3 -46 7 -60 10
-13 2 -52 7 -86 11 -33 3 -74 8 -90 10 -32 5 -540 14 -546 9z m407 -1129 c17
-3 46 -9 65 -12 19 -3 46 -8 60 -10 136 -24 373 -122 483 -200 26 -19 51 -34
56 -34 5 0 11 -3 13 -7 2 -5 32 -33 68 -63 249 -212 410 -471 479 -770 97
-420 -25 -887 -301 -1157 -183 -179 -369 -303 -538 -358 -30 -9 -58 -20 -61
-24 -4 -3 -10 -44 -13 -89 -14 -183 -94 -271 -272 -297 -21 -4 -50 -8 -64 -11
-31 -5 -259 -5 -320 0 -72 6 -162 27 -201 47 -48 24 -95 79 -126 147 -23 52
-26 69 -26 197 -1 293 36 410 173 546 92 91 183 147 309 189 125 42 192 73
273 127 159 105 219 205 219 368 -1 210 -93 341 -286 406 -43 14 -282 19 -345
7 -106 -20 -203 -70 -259 -134 -19 -21 -40 -65 -56 -119 -29 -95 -92 -226
-129 -266 -80 -90 -215 -116 -360 -69 -195 63 -295 106 -366 158 -183 133
-203 241 -97 512 59 149 67 164 152 295 122 184 264 322 430 418 105 61 281
135 385 162 45 12 169 37 215 43 63 9 389 7 440 -2z m32 -3530 c129 -27 230
-100 277 -200 54 -114 76 -358 50 -555 -19 -142 -46 -210 -111 -274 -66 -67
-147 -98 -293 -112 -99 -10 -344 -8 -390 4 -209 53 -285 114 -337 271 -15 47
-18 90 -18 305 l0 250 33 76 c83 193 205 246 567 247 96 0 185 -5 222 -12z"/>
</g>
</svg>
