<svg width="400" height="400" viewBox="0 0 400 400" fill="none" xmlns="http://www.w3.org/2000/svg">
<path fill-rule="evenodd" clip-rule="evenodd" d="M143.431 56.5684C174.673 25.3265 225.326 25.3265 256.568 56.5684L343.431 143.431C374.673 174.673 374.673 225.326 343.431 256.568L256.568 343.431C225.326 374.673 174.673 374.673 143.431 343.431L56.5682 256.568C25.3262 225.326 25.3263 174.673 56.5682 143.431L143.431 56.5684ZM232.566 225.736C264.664 225.736 290.725 199.893 291.078 167.879L231.911 225.731V225.729L291.078 167.876V146.837H270.039L210.866 204.695L210.872 204.7V220.277H210.868V231.891C210.868 234.296 210.566 236.658 209.988 238.932L210 238.837C204.9 249.963 196.706 249.914 185.657 249.848H185.656C184.788 249.843 183.903 249.837 183 249.837C171.402 249.837 162 259.239 162 270.837C162 282.435 171.402 291.837 183 291.837C192.344 291.837 200.262 285.734 202.987 277.297L203 277.337C205.942 268.019 211.932 260.625 214.834 257.042L215 256.837L214.901 256.843C220.298 249.79 223.354 241.056 223.354 231.891V225.735H231.911V225.733C232.129 225.735 232.347 225.736 232.566 225.736ZM210.863 204.696C211.216 172.682 237.277 146.838 269.375 146.838C269.594 146.838 269.813 146.839 270.032 146.842L210.863 204.696ZM173.93 227.932C142.165 227.932 116.373 202.361 116.015 170.682L116 170.666L116 170.666V149.841H136.825V149.842L136.829 149.846C137.041 149.844 137.254 149.843 137.468 149.843C169.234 149.843 195.027 175.416 195.382 207.098L195.393 207.109L195.392 207.11H195.398V227.935H174.573V227.929L174.568 227.934L174.563 227.929C174.352 227.931 174.141 227.932 173.93 227.932ZM192.572 270.837C192.572 276.124 188.286 280.41 183 280.41C177.713 280.41 173.427 276.124 173.427 270.837C173.427 265.55 177.713 261.265 183 261.265C188.286 261.265 192.572 265.55 192.572 270.837Z" fill="white"/>
<path fill-rule="evenodd" clip-rule="evenodd" d="M174.801 209.687C172.941 211.547 169.927 211.547 168.067 209.687L137.594 179.214C135.735 177.355 135.735 174.34 137.594 172.481C139.454 170.621 142.468 170.621 144.328 172.481L174.801 202.954C176.66 204.813 176.66 207.828 174.801 209.687Z" fill="white"/>
<path fill-rule="evenodd" clip-rule="evenodd" d="M232.562 206.687C234.421 208.546 237.436 208.546 239.295 206.687L269.768 176.214C271.628 174.354 271.628 171.34 269.768 169.48C267.909 167.621 264.894 167.621 263.035 169.48L232.562 199.953C230.702 201.813 230.702 204.827 232.562 206.687Z" fill="white"/>
</svg>
